<?xml version="1.0" encoding="UTF-8" standalone="no"?>
<!-- Created with Inkscape (http://www.inkscape.org/) -->

<svg
   xmlns:dc="http://purl.org/dc/elements/1.1/"
   xmlns:cc="http://creativecommons.org/ns#"
   xmlns:rdf="http://www.w3.org/1999/02/22-rdf-syntax-ns#"
   xmlns:svg="http://www.w3.org/2000/svg"
   xmlns="http://www.w3.org/2000/svg"
   xmlns:sodipodi="http://sodipodi.sourceforge.net/DTD/sodipodi-0.dtd"
   xmlns:inkscape="http://www.inkscape.org/namespaces/inkscape"
   width="185.94733mm"
   height="67.826752mm"
   viewBox="0 0 185.94733 67.826752"
   version="1.1"
   id="svg8"
   inkscape:version="0.92.1 r15371"
   sodipodi:docname="logo.svg">
  <defs
     id="defs2" />
  <sodipodi:namedview
     id="base"
     pagecolor="#ffffff"
     bordercolor="#666666"
     borderopacity="1.0"
     inkscape:pageopacity="0.0"
     inkscape:pageshadow="2"
     inkscape:zoom="0.35"
     inkscape:cx="-151.81546"
     inkscape:cy="-203.39993"
     inkscape:document-units="mm"
     inkscape:current-layer="layer1"
     showgrid="false"
     inkscape:window-width="1366"
     inkscape:window-height="705"
     inkscape:window-x="-8"
     inkscape:window-y="-8"
     inkscape:window-maximized="1" />
  <metadata
     id="metadata5">
    <rdf:RDF>
      <cc:Work
         rdf:about="">
        <dc:format>image/svg+xml</dc:format>
        <dc:type
           rdf:resource="http://purl.org/dc/dcmitype/StillImage" />
        <dc:title></dc:title>
      </cc:Work>
    </rdf:RDF>
  </metadata>
  <g
     inkscape:label="Capa 1"
     inkscape:groupmode="layer"
     id="layer1"
     transform="translate(-18.018675,-108.49325)">
    <flowRoot
       xml:space="preserve"
       id="flowRoot3680"
       style="font-style:normal;font-variant:normal;font-weight:normal;font-stretch:normal;font-size:96px;line-height:1.25;font-family:'Bookshelf Symbol 7';-inkscape-font-specification:'Bookshelf Symbol 7, ';letter-spacing:0px;word-spacing:0px;fill:#000000;fill-opacity:1;stroke:none"><flowRegion
         id="flowRegion3682"
         style="font-style:normal;font-variant:normal;font-weight:normal;font-stretch:normal;font-size:96px;font-family:'Bookshelf Symbol 7';-inkscape-font-specification:'Bookshelf Symbol 7, '"><rect
           id="rect3684"
           width="125.71429"
           height="185.71428"
           x="140"
           y="451.09113"
           style="font-style:normal;font-variant:normal;font-weight:normal;font-stretch:normal;font-size:96px;font-family:'Bookshelf Symbol 7';-inkscape-font-specification:'Bookshelf Symbol 7, '" /></flowRegion><flowPara
         id="flowPara3686"></flowPara></flowRoot>    <text
       xml:space="preserve"
       style="font-style:normal;font-weight:normal;font-size:76.89202881px;line-height:1.25;font-family:sans-serif;letter-spacing:0px;word-spacing:0px;fill:#000000;fill-opacity:1;stroke:none;stroke-width:1.92230082"
       x="18.894547"
       y="189.84512"
       id="text3690"
       transform="scale(1.2252099,0.81618668)"><tspan
         sodipodi:role="line"
         id="tspan3688"
         x="18.894547"
         y="189.84512"
         style="stroke-width:1.92230082">JTC</tspan></text>
    <path
       style="fill:#008080;stroke-width:0.26458332"
       id="path3736"
       d="m 27.092513,169.72754 c 2.96215,0.0678 5.925867,0.054 8.888727,0.0666 4.853435,0.008 9.706676,0.0428 14.559902,0.0873 7.962156,0.19717 15.915404,-0.0589 23.851618,-0.69655 4.817882,-0.36888 9.600139,-1.0902 14.400988,-1.62879 9.871839,-0.78731 19.808232,-0.24646 29.683782,0.22336 11.17098,0.58891 22.34984,1.00015 33.53412,1.2115 5.25033,0.21886 10.4849,0.0481 15.68105,-0.7298 5.89972,-0.77681 11.84794,-1.19547 17.78175,-1.64288 4.3563,-0.37638 8.72152,-0.5427 13.09189,-0.5908 1.79986,-0.0159 3.59977,-0.0225 5.39966,-0.0336 0,0 -8.91113,6.47604 -8.91113,6.47604 v 0 c -1.78249,-0.007 -3.56501,-0.01 -5.34744,0.0117 -4.29303,0.0653 -8.58538,0.21486 -12.86926,0.51035 -5.96566,0.44264 -11.94081,0.90516 -17.85985,1.78842 -5.17053,0.6804 -10.37161,0.73663 -15.5775,0.42635 -11.00415,-0.47273 -21.9998,-1.11967 -33.00322,-1.60861 -10.10925,-0.37016 -20.263886,-0.70264 -30.338619,0.46121 -4.742738,0.57965 -9.485542,1.212 -14.26034,1.46211 -7.961082,0.47709 -15.931814,0.67243 -23.907596,0.64465 -4.933355,0.0441 -9.866725,0.0791 -14.800281,0.0873 -3.023994,0.0127 -6.048753,-1.5e-4 -9.072089,0.0666 0,0 9.073838,-6.59252 9.073838,-6.59252 z"
       inkscape:connector-curvature="0" />
    <path
       style="fill:#008080;stroke-width:2.85714293"
       d="m 101.28571,584.22193 c -1.964281,-0.88385 -3.571424,-5.27352 -3.571424,-9.75481 v -8.1478 l 25.298484,1.63902 c 31.0665,2.01271 44.71282,-0.33307 53.59217,-9.21242 6.77114,-6.77114 6.82363,-7.29722 6.82363,-68.38208 V 428.8054 h -27.14286 c -27.04762,0 -27.14285,-0.0251 -27.14285,-7.14286 v -7.14285 H 172 214.85714 v 68.84488 c 0,79.16291 -0.20528,79.95571 -24.08401,93.01196 -13.33807,7.2929 -17.32077,7.98207 -50.2017,8.68687 -19.64286,0.42105 -37.32143,0.0424 -39.28572,-0.84147 z"
       id="path3738"
       inkscape:connector-curvature="0"
       transform="scale(0.26458333)" />
    <path
       style="fill:#008080;stroke-width:2.85714293"
       d="m 584.75551,585.66708 c -26.67048,-1.98616 -46.69387,-8.0127 -64.82378,-19.51035 -52.32353,-33.1826 -46.97056,-109.50522 9.69092,-138.17331 37.58294,-19.01523 97.57281,-21.54532 149.93403,-6.3235 l 15.30046,4.44796 v 12.37477 12.37476 l -13.57143,-6.62913 c -46.92908,-22.92306 -116.38413,-19.62276 -144.64599,6.87316 -18.46546,17.31165 -24.61613,52.04185 -13.5365,76.43484 6.97815,15.36313 26.66609,31.80375 44.48627,37.1487 30.12844,9.03668 83.85888,4.2314 113.65499,-10.16451 6.50586,-3.14329 12.30412,-5.71507 12.88503,-5.71507 0.5809,0 0.66084,5.46429 0.17762,12.14286 l -0.87856,12.14285 -24.28571,6.07448 c -28.18366,7.04944 -52.19174,8.89911 -84.38735,6.50149 z"
       id="path3740"
       inkscape:connector-curvature="0"
       transform="scale(0.26458333)" />
  </g>
</svg>
